<svg viewBox="0 0 15.63 19.25" xmlns="http://www.w3.org/2000/svg"><g fill="#4b4d4e"><path d="m14.14 2.41h-3.31v-.61a1.81 1.81 0 0 0 -1.83-1.8h-2.38a1.8 1.8 0 0 0 -1.8 1.8v.6h-3.32a1.51 1.51 0 0 0 -1.5 1.51v2.09a.6.6 0 0 0 .6.6h.33l.52 10.91a1.8 1.8 0 0 0 1.8 1.72h9.13a1.8 1.8 0 0 0 1.8-1.72l.52-10.89h.3a.6.6 0 0 0 .6-.6v-2.11a1.5 1.5 0 0 0 -1.46-1.5zm-8.14-.6a.59.59 0 0 1 .6-.6h2.4a.6.6 0 0 1 .6.6v.6h-3.6zm-4.8 2.1a.29.29 0 0 1 .3-.3h12.64a.3.3 0 0 1 .3.3v1.5h-13.24zm11.8 13.57a.6.6 0 0 1 -.6.57h-9.15a.6.6 0 0 1 -.6-.57l-.51-10.86h11.37z"/><path d="m7.82 16.85a.6.6 0 0 0 .6-.6v-7.83a.6.6 0 0 0 -1.2 0v7.82a.61.61 0 0 0 .6.61z"/><path d="m10.83 16.85a.6.6 0 0 0 .6-.6v-7.83a.6.6 0 0 0 -1.2 0v7.82a.61.61 0 0 0 .59.61z"/><path d="m4.81 16.85a.6.6 0 0 0 .6-.6v-7.83a.6.6 0 0 0 -1.2 0v7.82a.62.62 0 0 0 .6.61z"/></g></svg>