<svg xmlns="http://www.w3.org/2000/svg" width="64" height="72" viewBox="0 0 64 72"><defs><style>.a{fill:#aaaebf;}</style></defs><path class="a" d="M42.429,72a5,5,0,0,1-5-5V61.08a1.462,1.462,0,0,0-1.065-1.4L7.653,51.642a5,5,0,0,1,.018-9.635L44.325,31.894,23.278,26A5,5,0,0,1,23.2,16.4L36.586,12.4a1.449,1.449,0,0,0,1.04-1.4V5a5,5,0,0,1,10,0v6.006A11.545,11.545,0,0,1,42,20.861l22.344,6.253a5,5,0,0,1-.018,9.635L27.677,46.861l11.382,3.185A11.5,11.5,0,0,1,47.429,61.08V67A5,5,0,0,1,42.429,72Z" transform="translate(-4)"/></svg>