<svg id="Group_73" data-name="Group 73" xmlns="http://www.w3.org/2000/svg" width="72" height="72" viewBox="0 0 72 72">
  <path id="Path_8" data-name="Path 8" d="M8.927,12.163,24.3,27.538a14.367,14.367,0,0,0-2.559,6.174H0A35.92,35.92,0,0,1,8.927,12.163Z" fill="#eb7025"/>
  <path id="Path_9" data-name="Path 9" d="M12.163,8.927A35.92,35.92,0,0,1,33.712,0V21.743A14.367,14.367,0,0,0,27.538,24.3Z" fill="#eb7025"/>
  <path id="Path_10" data-name="Path 10" d="M59.837,8.927,44.462,24.3a14.367,14.367,0,0,0-6.174-2.559V0A35.92,35.92,0,0,1,59.837,8.927Z" fill="#eb7025"/>
  <path id="Path_11" data-name="Path 11" d="M72,33.712H50.257A14.367,14.367,0,0,0,47.7,27.538L63.073,12.163A35.92,35.92,0,0,1,72,33.712Z" fill="#eb7025"/>
  <path id="Path_12" data-name="Path 12" d="M24.3,44.462,8.927,59.837A35.92,35.92,0,0,1,0,38.288H21.743A14.367,14.367,0,0,0,24.3,44.462Z" fill="#eb7025"/>
  <path id="Path_13" data-name="Path 13" d="M27.538,47.7a14.367,14.367,0,0,0,6.174,2.559V72a35.92,35.92,0,0,1-21.549-8.927Z" fill="#eb7025"/>
  <path id="Path_14" data-name="Path 14" d="M59.837,63.073A35.92,35.92,0,0,1,38.288,72V50.257A14.367,14.367,0,0,0,44.462,47.7Z" fill="#eb7025"/>
  <path id="Path_15" data-name="Path 15" d="M72,38.288a35.92,35.92,0,0,1-8.927,21.549L47.7,44.462a14.367,14.367,0,0,0,2.559-6.174Z" fill="#eb7025"/>
</svg>
