<svg width="47" height="56" viewBox="0 0 47 56" fill="none" xmlns="http://www.w3.org/2000/svg">
<g clip-path="url(#clip0)">
<path d="M11.1894 22.5238C11.1894 15.0143 16.4731 8.88281 24.0889 8.88281C31.7046 8.88281 37.1113 15.1468 37.1113 22.6491H46.9999V22.5238C46.9999 10.073 37.4779 0 24.2119 0C10.9458 0 1.30078 10.1982 1.30078 22.6467H11.1894V22.5238Z" fill="#23A6F0"/>
<path d="M23.2715 42.3688L29.9577 49.1797L23.2691 55.993L16.5829 49.1821L16.5781 49.1869L23.2667 56.0002L46.542 32.291H33.1648L23.2715 42.3688Z" fill="#23A6F0"/>
<path d="M29.9568 49.1797L23.2706 42.3688L13.3772 32.291H0L16.582 49.1821L23.2682 55.993L29.9568 49.1797Z" fill="white"/>
<path d="M24.0884 28.9204C26.9138 28.9204 29.2042 26.5872 29.2042 23.7092C29.2042 20.8312 26.9138 18.498 24.0884 18.498C21.2631 18.498 18.9727 20.8312 18.9727 23.7092C18.9727 26.5872 21.2631 28.9204 24.0884 28.9204Z" fill="#23A6F0"/>
</g>
<defs>
<clipPath id="clip0">
<rect width="47" height="56" fill="white"/>
</clipPath>
</defs>
</svg>
