<svg viewBox="0 0 142.61 143.24" xmlns="http://www.w3.org/2000/svg"><path d="m71.3 0a71.76 71.76 0 0 0 -71.3 64.5h14.46a57.29 57.29 0 0 1 113.69 0h14.46a71.78 71.78 0 0 0 -71.31-64.5zm-71.3 78.83a71.19 71.19 0 0 0 15.89 38.17l10.17-10.18a57.09 57.09 0 0 1 -11.6-27.94zm116.25 28.17a57.75 57.75 0 0 1 -10.15 10.1l7.25 12.43a72.29 72.29 0 0 0 15.3-15.1zm-80 9.89-10.25 10.19a71.62 71.62 0 0 0 33.06 15.19l1-14.42a57.14 57.14 0 0 1 -23.89-11zm57.53 7.46a57 57 0 0 1 -19.34 4.51l-1 14.38a71.07 71.07 0 0 0 27.56-6.49z"/></svg>