<svg viewBox="0 0 142.72 30" xmlns="http://www.w3.org/2000/svg"><path d="m24.62 16.29a6.7 6.7 0 0 1 .82 3.43v.08a8.19 8.19 0 0 1 -.84 3.77 8 8 0 0 1 -2.36 2.84 11.23 11.23 0 0 1 -3.69 1.79 17.54 17.54 0 0 1 -4.88.63 24.89 24.89 0 0 1 -7.6-1.13 16.72 16.72 0 0 1 -6.07-3.37l4.76-5.67a14.07 14.07 0 0 0 4.57 2.4 16.52 16.52 0 0 0 4.76.72 3.73 3.73 0 0 0 1.75-.3.93.93 0 0 0 .54-.84v-.07c0-.39-.27-.71-.78-1a14 14 0 0 0 -2.92-.8c-1.5-.3-2.93-.66-4.28-1.07a14.49 14.49 0 0 1 -3.58-1.56 7.44 7.44 0 0 1 -2.46-2.4 6.47 6.47 0 0 1 -.91-3.54v-.08a8.38 8.38 0 0 1 .74-3.54 8.08 8.08 0 0 1 2.17-2.81 10.16 10.16 0 0 1 3.54-1.91 15.66 15.66 0 0 1 4.86-.69 22.78 22.78 0 0 1 6.8.92 16.24 16.24 0 0 1 5.23 2.74l-4.34 6a13.27 13.27 0 0 0 -4-2 13.93 13.93 0 0 0 -4-.63 2.79 2.79 0 0 0 -1.46.3.91.91 0 0 0 -.48.8v.1c0 .36.24.66.73.91a11.79 11.79 0 0 0 2.81.8 40.84 40.84 0 0 1 4.65 1.11 13.32 13.32 0 0 1 3.6 1.66 7.28 7.28 0 0 1 2.32 2.41zm.38-7.08h7.84v19.12h8.92v-19.12h7.85v-7.54h-24.61zm103.37-9.21-14.37 28.33h8.54l5.81-11.47 5.81 11.47h8.54zm-39.94 0 14.35 28.33h-8.55l-5.8-11.47-5.81 11.47h-16l-5-7.62h-1.9v7.62h-8.91v-26.66h13a18 18 0 0 1 5.88.82 9.92 9.92 0 0 1 3.72 2.23 8.24 8.24 0 0 1 1.83 2.74 9.72 9.72 0 0 1 .64 3.54v.08a8.38 8.38 0 0 1 -1.42 5 9.79 9.79 0 0 1 -3.84 3.2l4.63 6.72zm-21.43 11.68a2.18 2.18 0 0 0 -.92-1.92 4.34 4.34 0 0 0 -2.47-.62h-3.89v5.21h3.85a4.11 4.11 0 0 0 2.51-.68 2.27 2.27 0 0 0 .92-1.91zm47.21-10-5.81 11.46-5.81-11.47h-8.54l14.35 28.33 14.35-28.33z"/></svg>